<svg id="visual" viewBox="0 0 1376 768" width="1376" height="768" xmlns="http://www.w3.org/2000/svg" xmlns:xlink="http://www.w3.org/1999/xlink" version="1.1"><rect x="0" y="0" width="1376" height="768" fill="#d5d4d5"></rect><g transform="translate(689.8264116512473 400.1366712209945)"><path d="M244.9 -402.1C355.7 -360.1 510.4 -372 524.9 -314C539.4 -256 413.7 -128 348.2 -37.8C282.7 52.3 277.3 104.7 265.2 166.9C253.1 229.1 234.3 301.2 189 393.8C143.7 486.5 71.8 599.8 2.1 596.1C-67.7 592.5 -135.3 472.1 -185.4 382.2C-235.5 292.2 -268 232.9 -315.8 174.3C-363.7 115.7 -426.8 57.8 -471.6 -25.8C-516.3 -109.5 -542.7 -219 -523.2 -326.7C-503.7 -434.4 -438.3 -540.2 -343.5 -591.5C-248.7 -642.7 -124.3 -639.4 -28.7 -589.7C67 -540 134 -444.1 244.9 -402.1" fill="#3076de"></path></g></svg>