<svg id="visual" viewBox="0 0 960 540" width="960" height="540" xmlns="http://www.w3.org/2000/svg" xmlns:xlink="http://www.w3.org/1999/xlink" version="1.1"><path d="M671 540L767 405L527 270L892 135L805 0L960 0L960 135L960 270L960 405L960 540Z" fill="#1c1c1a"></path><path d="M546 540L719 405L345 270L777 135L594 0L806 0L893 135L528 270L768 405L672 540Z" fill="#464843"></path><path d="M431 540L604 405L325 270L719 135L402 0L595 0L778 135L346 270L720 405L547 540Z" fill="#737973"></path><path d="M124 540L268 405L105 270L287 135L191 0L403 0L720 135L326 270L605 405L432 540Z" fill="#a3aea8"></path><path d="M0 540L0 405L0 270L0 135L0 0L192 0L288 135L106 270L269 405L125 540Z" fill="#d5e6e1"></path></svg>